<?xml version="1.0" standalone="no"?><!-- Generator: Gravit.io --><svg xmlns="http://www.w3.org/2000/svg" xmlns:xlink="http://www.w3.org/1999/xlink" style="isolation:isolate" viewBox="0 0 256 224.878" width="256" height="224.878"><g id="Logo"><g id="ESLint"><polygon points="215.91,61.685,215.91,163.194,128,213.949,40.09,163.194,40.09,61.685,128,10.93" fill="rgb(255,255,255)"/><path d=" M 254.417 107.417 L 196.323 6.35 C 194.213 2.696 190.315 0 186.095 0 L 69.906 0 C 65.686 0 61.786 2.696 59.676 6.35 L 1.583 107.194 C -0.528 110.849 -0.528 115.462 1.583 119.117 L 59.676 219.356 C 61.786 223.01 65.686 224.878 69.906 224.878 L 186.094 224.878 C 190.314 224.878 194.213 223.066 196.322 219.411 L 254.416 119.009 C 256.528 115.356 256.528 111.071 254.417 107.417 L 254.417 107.417 L 254.417 107.417 Z  M 206.312 156.016 C 206.312 157.502 205.418 158.877 204.13 159.621 L 130.131 202.314 C 128.844 203.057 127.232 203.057 125.945 202.314 L 51.889 159.621 C 50.602 158.877 49.701 157.503 49.701 156.016 L 49.701 70.628 C 49.701 69.141 50.589 67.768 51.877 67.024 L 125.872 24.33 C 127.159 23.586 128.77 23.586 130.057 24.33 L 204.118 67.024 C 205.406 67.768 206.312 69.141 206.312 70.628 L 206.312 156.016 L 206.312 156.016 Z " fill="rgb(75,50,195)"/><path d=" M 77.965 80.568 L 126.535 52.527 C 127.75 51.825 129.249 51.825 130.464 52.527 L 179.035 80.568 C 180.25 81.27 181 82.567 181 83.971 L 181 140.055 C 181 141.458 180.25 142.755 179.035 143.458 L 130.464 171.5 C 129.249 172.202 127.75 172.202 126.535 171.5 L 77.965 143.458 C 76.749 142.756 76 141.459 76 140.055 L 76 83.971 C 76.001 82.567 76.75 81.27 77.965 80.568 Z " fill="rgb(128,128,242)"/></g><path d=" M 156.284 187.939 C 156.284 171.572 169.572 158.284 185.939 158.284 C 202.306 158.284 215.595 171.572 215.595 187.939 C 215.595 204.306 202.306 217.595 185.939 217.595 C 169.572 217.595 156.284 204.306 156.284 187.939 Z " fill="rgb(255,255,255)"/><path d=" M 159.405 187.939 C 159.405 173.295 171.295 161.405 185.939 161.405 C 200.584 161.405 212.473 173.295 212.473 187.939 C 212.473 202.584 200.584 214.473 185.939 214.473 C 171.295 214.473 159.405 202.584 159.405 187.939 Z  M 149 187.939 C 149 178.158 152.85 168.793 159.822 161.822 C 166.793 154.85 176.158 151 185.939 151 C 195.72 151 205.085 154.85 212.057 161.822 C 219.028 168.793 222.878 178.158 222.878 187.939 C 222.878 197.72 219.028 207.085 212.057 214.057 C 205.085 221.028 195.72 224.878 185.939 224.878 C 176.158 224.878 166.793 221.028 159.822 214.057 C 152.85 207.085 149 197.72 149 187.939 Z " fill-rule="evenodd" fill="rgb(75,50,195)"/><g id="json" style="opacity:0.84;"><linearGradient id="_lgradient_24" x1="15.791303639940447%" y1="14.737049293593522%" x2="91.00874009481826%" y2="85.22812461759739%"><stop offset="0%" stop-opacity="1" style="stop-color:rgb(0,0,0)"/><stop offset="100%" stop-opacity="1" style="stop-color:rgb(255,255,255)"/></linearGradient><path d=" M 185.905 197.983 C 194.883 210.222 203.669 194.567 203.656 185.152 C 203.641 174.021 192.359 167.8 185.898 167.8 C 175.526 167.8 165.649 176.372 165.649 188.1 C 165.649 201.136 176.971 208.356 185.898 208.356 C 183.877 208.065 177.146 206.623 177.055 191.118 C 176.994 180.631 180.476 176.441 185.883 178.284 C 186.004 178.329 191.847 180.634 191.847 188.163 C 191.847 195.661 185.905 197.983 185.905 197.983 Z " fill-rule="evenodd" fill="url(#_lgradient_24)"/><linearGradient id="_lgradient_25" x1="-3.113154417248526%" y1="14.790049733053012%" x2="82.13566646707469%" y2="85.23739530279697%"><stop offset="0%" stop-opacity="1" style="stop-color:rgb(255,255,255)"/><stop offset="100%" stop-opacity="1" style="stop-color:rgb(0,0,0)"/></linearGradient><path d=" M 185.894 178.276 C 179.962 176.231 172.695 181.12 172.695 190.914 C 172.695 206.905 184.544 208.356 185.981 208.356 C 196.353 208.356 206.23 199.785 206.23 188.057 C 206.23 175.021 194.908 167.8 185.981 167.8 C 188.453 167.458 199.307 170.476 199.307 185.31 C 199.307 194.984 191.203 200.25 185.932 198 C 185.81 197.955 179.968 195.651 179.968 188.121 C 179.968 180.624 185.894 178.276 185.894 178.276 L 185.894 178.276 Z " fill-rule="evenodd" fill="url(#_lgradient_25)"/></g></g></svg>