<?xml version="1.0" standalone="no"?><!-- Generator: Gravit.io --><svg xmlns="http://www.w3.org/2000/svg" xmlns:xlink="http://www.w3.org/1999/xlink" style="isolation:isolate" viewBox="0 0 289.583 252.187" width="289.583" height="252.187"><g id="Group"><g id="eslint-seeklogo.com"><path d=" M 77.965 80.568 L 126.535 52.526 C 127.75 51.825 129.249 51.825 130.464 52.526 L 179.035 80.568 C 180.25 81.27 181 82.567 181 83.971 L 181 140.055 C 181 141.458 180.25 142.755 179.035 143.458 L 130.464 171.5 C 129.249 172.202 127.75 172.202 126.535 171.5 L 77.965 143.458 C 76.749 142.756 76 141.459 76 140.055 L 76 83.971 C 76.001 82.567 76.75 81.27 77.965 80.568 Z " fill="rgb(128,128,242)"/><path d=" M 254.417 107.417 L 196.323 6.35 C 194.213 2.696 190.315 0 186.095 0 L 69.906 0 C 65.686 0 61.786 2.696 59.676 6.35 L 1.583 107.194 C -0.528 110.849 -0.528 115.462 1.583 119.117 L 59.676 219.356 C 61.786 223.01 65.686 224.878 69.906 224.878 L 186.094 224.878 C 190.314 224.878 194.213 223.066 196.322 219.411 L 254.416 119.009 C 256.528 115.356 256.528 111.071 254.417 107.417 L 254.417 107.417 L 254.417 107.417 Z  M 206.312 156.016 C 206.312 157.502 205.418 158.877 204.13 159.621 L 130.131 202.314 C 128.844 203.057 127.232 203.057 125.945 202.314 L 51.889 159.621 C 50.602 158.877 49.701 157.503 49.701 156.016 L 49.701 70.628 C 49.701 69.141 50.589 67.768 51.877 67.024 L 125.872 24.33 C 127.159 23.586 128.77 23.586 130.057 24.33 L 204.118 67.024 C 205.406 67.768 206.312 69.141 206.312 70.628 L 206.312 156.016 L 206.312 156.016 L 206.312 156.016 Z " fill="rgb(75,50,195)"/></g><g id="json"><linearGradient id="_lgradient_0" x1="15.791303639940447%" y1="14.737049293593522%" x2="91.00874009481826%" y2="85.22812461759739%"><stop offset="0%" stop-opacity="1" style="stop-color:rgb(0,0,0)"/><stop offset="100%" stop-opacity="1" style="stop-color:rgb(255,255,255)"/></linearGradient><path d=" M 232.991 223.303 C 257.989 257.381 282.453 213.792 282.417 187.579 C 282.375 156.587 250.963 139.265 232.971 139.265 C 204.093 139.265 176.591 163.132 176.591 195.787 C 176.591 232.082 208.116 252.187 232.971 252.187 C 227.347 251.377 208.603 247.361 208.351 204.189 C 208.182 174.99 217.876 163.325 232.93 168.456 C 233.267 168.581 249.536 174.999 249.536 195.963 C 249.536 216.838 232.991 223.303 232.991 223.303 Z " fill-rule="evenodd" fill="url(#_lgradient_0)"/><linearGradient id="_lgradient_1" x1="-3.113154417248526%" y1="14.790049733053012%" x2="82.13566646707469%" y2="85.23739530279697%"><stop offset="0%" stop-opacity="1" style="stop-color:rgb(255,255,255)"/><stop offset="100%" stop-opacity="1" style="stop-color:rgb(0,0,0)"/></linearGradient><path d=" M 232.962 168.433 C 216.444 162.739 196.21 176.353 196.21 203.621 C 196.21 248.146 229.204 252.187 233.203 252.187 C 262.081 252.187 289.583 228.32 289.583 195.666 C 289.583 159.37 258.058 139.265 233.203 139.265 C 240.087 138.312 270.307 146.716 270.307 188.019 C 270.307 214.954 247.742 229.617 233.066 223.352 C 232.729 223.227 216.46 216.81 216.46 195.846 C 216.46 174.971 232.962 168.433 232.962 168.433 L 232.962 168.433 Z " fill-rule="evenodd" fill="url(#_lgradient_1)"/></g></g></svg>