<?xml version="1.0" standalone="no"?><!-- Generator: Gravit.io --><svg xmlns="http://www.w3.org/2000/svg" xmlns:xlink="http://www.w3.org/1999/xlink" style="isolation:isolate" viewBox="1 0 256 224.878" width="256" height="224.878"><g id="Logo"><g id="ESLint"><polygon points="216.91,61.685,216.91,163.194,129,213.949,41.09,163.194,41.09,61.685,129,10.93" fill="rgb(255,255,255)"/><path d=" M 255.417 107.417 L 197.323 6.35 C 195.213 2.696 191.315 0 187.095 0 L 70.906 0 C 66.686 0 62.786 2.696 60.676 6.35 L 2.583 107.194 C 0.472 110.849 0.472 115.462 2.583 119.117 L 60.676 219.356 C 62.786 223.01 66.686 224.878 70.906 224.878 L 187.094 224.878 C 191.314 224.878 195.213 223.066 197.322 219.411 L 237.065 150.724 Q 241.097 155.483 241.151 153.652 Q 239.449 148.144 241.784 142.568 L 255.416 119.009 C 257.528 115.356 257.528 111.071 255.417 107.417 L 255.417 107.417 Z  M 207.312 156.016 C 207.312 157.502 206.418 158.877 205.13 159.621 L 142.23 195.911 Q 137.041 191.904 134 193 Q 137.205 199.753 134 201 L 131.131 202.314 C 129.844 203.057 128.232 203.057 126.945 202.314 L 52.889 159.621 C 51.602 158.877 50.701 157.503 50.701 156.016 L 50.701 70.628 C 50.701 69.141 51.589 67.768 52.877 67.024 L 126.872 24.33 C 128.159 23.586 129.77 23.586 131.057 24.33 L 205.118 67.024 C 206.406 67.768 207.312 69.141 207.312 70.628 L 207.312 108.873 Q 207.003 113.69 200 112 Q 199.47 111.872 207.312 115.309 L 207.312 156.016 L 207.312 156.016 Z " fill="rgb(75,50,195)"/><path d=" M 78.965 80.568 L 127.535 52.527 C 128.75 51.825 130.249 51.825 131.464 52.527 L 180.035 80.568 C 181.25 81.27 182 82.567 182 83.971 L 182 140.055 C 182 141.458 181.25 142.755 180.035 143.458 L 131.464 171.5 C 130.249 172.202 128.75 172.202 127.535 171.5 L 78.965 143.458 C 77.749 142.756 77 141.459 77 140.055 L 77 83.971 C 77.001 82.567 77.75 81.27 78.965 80.568 Z " fill="rgb(128,128,242)"/></g><g id="Group"><path d=" M 128 167.439 C 128 152.23 133.987 137.668 144.827 126.827 C 155.668 115.987 170.23 110 185.439 110 C 200.648 110 215.211 115.987 226.051 126.827 C 236.892 137.668 242.878 152.23 242.878 167.439 C 242.878 182.648 236.892 197.211 226.051 208.051 C 215.211 218.892 200.648 224.878 185.439 224.878 C 170.23 224.878 155.668 218.892 144.827 208.051 C 133.987 197.211 128 182.648 128 167.439 Z " fill="rgb(75,50,195)"/><path d=" M 144.827 167.439 C 144.827 145.025 163.025 126.827 185.439 126.827 C 207.854 126.827 226.051 145.025 226.051 167.439 C 226.051 189.854 207.854 208.051 185.439 208.051 C 163.025 208.051 144.827 189.854 144.827 167.439 Z " fill="rgb(255,255,255)"/><g id="json" style="opacity:0.84;"><linearGradient id="_lgradient_4" x1="15.791303639940447%" y1="14.737049293593522%" x2="91.00874009481826%" y2="85.22812461759739%"><stop offset="0%" stop-opacity="1" style="stop-color:rgb(0,0,0)"/><stop offset="100%" stop-opacity="1" style="stop-color:rgb(255,255,255)"/></linearGradient><path d=" M 185.386 183.056 C 199.346 202.088 213.009 177.745 212.989 163.105 C 212.965 145.797 195.422 136.124 185.374 136.124 C 169.247 136.124 153.888 149.453 153.888 167.689 C 153.888 187.959 171.494 199.187 185.374 199.187 C 182.233 198.735 171.766 196.492 171.625 172.382 C 171.53 156.075 176.944 149.56 185.352 152.426 C 185.54 152.496 194.625 156.08 194.625 167.788 C 194.625 179.446 185.386 183.056 185.386 183.056 Z " fill-rule="evenodd" fill="url(#_lgradient_4)"/><linearGradient id="_lgradient_5" x1="-3.113154417248526%" y1="14.790049733053012%" x2="82.13566646707469%" y2="85.23739530279697%"><stop offset="0%" stop-opacity="1" style="stop-color:rgb(255,255,255)"/><stop offset="100%" stop-opacity="1" style="stop-color:rgb(0,0,0)"/></linearGradient><path d=" M 185.37 152.413 C 176.145 149.233 164.844 156.836 164.844 172.065 C 164.844 196.93 183.27 199.187 185.504 199.187 C 201.632 199.187 216.99 185.858 216.99 167.622 C 216.99 147.352 199.385 136.124 185.504 136.124 C 189.349 135.591 206.226 140.285 206.226 163.351 C 206.226 178.394 193.624 186.583 185.427 183.084 C 185.239 183.014 176.154 179.43 176.154 167.722 C 176.154 156.064 185.37 152.413 185.37 152.413 L 185.37 152.413 Z " fill-rule="evenodd" fill="url(#_lgradient_5)"/></g></g></g></svg>